<svg xmlns="http://www.w3.org/2000/svg" viewBox="0 0 24 24" aria-hidden="true">
  <path fill="#1ED760" d="M12 0C5.373 0 0 5.373 0 12s5.373 12 12 12 12-5.373 12-12S18.627 0 12 0Zm5.48 17.28a.75.75 0 0 1-1.03.25c-2.82-1.72-6.37-2.1-10.54-1.12a.75.75 0 1 1-.35-1.46c4.58-1.1 8.52-.66 11.72 1.3a.75.75 0 0 1 .2 1.03Zm1.3-2.9a.94.94 0 0 1-1.3.31c-3.27-2-8.26-2.58-12.12-1.4a.94.94 0 1 1-.55-1.8c4.43-1.35 9.87-.7 13.63 1.6.44.27.58.84.34 1.29Zm.13-3.17C15.7 9 8.86 8.78 5.16 9.9a1.12 1.12 0 0 1-.65-2.14c4.26-1.3 11.35-1.05 15.8 1.58a1.12 1.12 0 1 1-1.4 1.9Z"/>
</svg>
